<?xml version="1.0" encoding="utf-8"?>
<svg width="18px" height="30px" viewBox="0 0 18 30" version="1.1" xmlns:xlink="http://www.w3.org/1999/xlink" xmlns="http://www.w3.org/2000/svg">
  <path d="M7.999 0L8.001 0Q8.19736 0 8.39349 0.00963514Q8.58962 0.0192703 8.78504 0.0385174Q8.98046 0.0577644 9.1747 0.0865771Q9.36893 0.11539 9.56153 0.153699Q9.75412 0.192007 9.9446 0.23972Q10.1351 0.287433 10.323 0.344434Q10.5109 0.401436 10.6958 0.467589Q10.8807 0.533742 11.0621 0.608888Q11.2435 0.684033 11.421 0.76799Q11.5985 0.851946 11.7717 0.944512Q11.9449 1.03708 12.1133 1.13803Q12.2817 1.23898 12.445 1.34807Q12.6083 1.45717 12.766 1.57414Q12.9237 1.69112 13.0755 1.81569Q13.2273 1.94026 13.3728 2.07213Q13.5183 2.204 13.6571 2.34285Q13.796 2.4817 13.9279 2.6272Q14.0597 2.7727 14.1843 2.92449Q14.3089 3.07628 14.4259 3.234Q14.5428 3.39172 14.6519 3.55499Q14.761 3.71826 14.862 3.88669Q14.9629 4.05512 15.0555 4.2283Q15.1481 4.40148 15.232 4.57899Q15.316 4.7565 15.3911 4.93791Q15.4663 5.11933 15.5324 5.30422Q15.5986 5.4891 15.6556 5.67701Q15.7126 5.86492 15.7603 6.0554Q15.808 6.24588 15.8463 6.43847Q15.8846 6.63106 15.9134 6.8253Q15.9422 7.01954 15.9615 7.21496Q15.9807 7.41038 15.9904 7.60651Q16 7.80264 16 7.999L16 20.001Q16 20.1974 15.9904 20.3935Q15.9807 20.5896 15.9615 20.785Q15.9422 20.9805 15.9134 21.1747Q15.8846 21.3689 15.8463 21.5615Q15.808 21.7541 15.7603 21.9446Q15.7126 22.1351 15.6556 22.323Q15.5986 22.5109 15.5324 22.6958Q15.4663 22.8807 15.3911 23.0621Q15.316 23.2435 15.232 23.421Q15.1481 23.5985 15.0555 23.7717Q14.9629 23.9449 14.862 24.1133Q14.761 24.2817 14.6519 24.445Q14.5428 24.6083 14.4259 24.766Q14.3089 24.9237 14.1843 25.0755Q14.0597 25.2273 13.9279 25.3728Q13.796 25.5183 13.6571 25.6571Q13.5183 25.796 13.3728 25.9279Q13.2273 26.0597 13.0755 26.1843Q12.9237 26.3089 12.766 26.4259Q12.6083 26.5428 12.445 26.6519Q12.2817 26.761 12.1133 26.862Q11.9449 26.9629 11.7717 27.0555Q11.5985 27.1481 11.421 27.232Q11.2435 27.316 11.0621 27.3911Q10.8807 27.4663 10.6958 27.5324Q10.5109 27.5986 10.323 27.6556Q10.1351 27.7126 9.9446 27.7603Q9.75412 27.808 9.56153 27.8463Q9.36893 27.8846 9.1747 27.9134Q8.98046 27.9422 8.78504 27.9615Q8.58962 27.9807 8.39349 27.9904Q8.19736 28 8.001 28L7.999 28Q7.80264 28 7.60651 27.9904Q7.41038 27.9807 7.21496 27.9615Q7.01954 27.9422 6.8253 27.9134Q6.63106 27.8846 6.43847 27.8463Q6.24588 27.808 6.0554 27.7603Q5.86492 27.7126 5.67701 27.6556Q5.4891 27.5986 5.30422 27.5324Q5.11933 27.4663 4.93791 27.3911Q4.7565 27.316 4.57899 27.232Q4.40148 27.1481 4.2283 27.0555Q4.05512 26.9629 3.88669 26.862Q3.71826 26.761 3.55499 26.6519Q3.39172 26.5428 3.234 26.4259Q3.07628 26.3089 2.92449 26.1843Q2.7727 26.0597 2.6272 25.9279Q2.4817 25.796 2.34285 25.6571Q2.204 25.5183 2.07213 25.3728Q1.94026 25.2273 1.81569 25.0755Q1.69112 24.9237 1.57414 24.766Q1.45717 24.6083 1.34807 24.445Q1.23898 24.2817 1.13803 24.1133Q1.03708 23.9449 0.944512 23.7717Q0.851946 23.5985 0.76799 23.421Q0.684033 23.2435 0.608888 23.0621Q0.533742 22.8807 0.467589 22.6958Q0.401436 22.5109 0.344434 22.323Q0.287433 22.1351 0.23972 21.9446Q0.192007 21.7541 0.153699 21.5615Q0.11539 21.3689 0.0865771 21.1747Q0.0577644 20.9805 0.0385174 20.785Q0.0192703 20.5896 0.00963514 20.3935Q0 20.1974 0 20.001L0 7.999Q0 7.80264 0.00963514 7.60651Q0.0192703 7.41038 0.0385174 7.21496Q0.0577644 7.01954 0.0865771 6.8253Q0.11539 6.63106 0.153699 6.43847Q0.192007 6.24588 0.23972 6.0554Q0.287433 5.86492 0.344434 5.67701Q0.401436 5.4891 0.467589 5.30422Q0.533742 5.11933 0.608888 4.93791Q0.684033 4.7565 0.76799 4.57899Q0.851946 4.40148 0.944512 4.2283Q1.03708 4.05512 1.13803 3.88669Q1.23898 3.71826 1.34807 3.55499Q1.45717 3.39172 1.57414 3.234Q1.69112 3.07628 1.81569 2.92449Q1.94026 2.7727 2.07213 2.6272Q2.204 2.4817 2.34285 2.34285Q2.4817 2.204 2.6272 2.07213Q2.7727 1.94026 2.92449 1.81569Q3.07628 1.69112 3.234 1.57414Q3.39172 1.45717 3.55499 1.34807Q3.71826 1.23898 3.88669 1.13803Q4.05512 1.03708 4.2283 0.944512Q4.40148 0.851946 4.57899 0.76799Q4.7565 0.684033 4.93791 0.608888Q5.11933 0.533742 5.30422 0.467589Q5.4891 0.401436 5.67701 0.344434Q5.86492 0.287433 6.0554 0.23972Q6.24588 0.192007 6.43847 0.153699Q6.63106 0.11539 6.8253 0.0865771Q7.01954 0.0577644 7.21496 0.0385174Q7.41038 0.0192703 7.60651 0.00963514Q7.80264 0 7.999 0L7.999 0Z" transform="translate(1 1)" id="Rectangle" fill="none" fill-rule="evenodd" stroke="#222222" stroke-width="2" />
  <path d="M1 0L1 6" transform="translate(8 7.5)" id="Line" fill="none" fill-rule="evenodd" stroke="#222222" stroke-width="2" stroke-linecap="round" />
</svg>